<?xml version="1.0"?>
<svg xmlns="http://www.w3.org/2000/svg" id="Glyph" viewBox="0 0 512 512" width="512" height="512"><path d="M223.849,381.744A210.454,210.454,0,0,0,112,344.153V416a24.027,24.027,0,0,0,24,24H271.047C266.885,421.628,249.284,399.632,223.849,381.744Z"/><path d="M263.667,395.7C241.632,328.59,178.385,280,104,280a8,8,0,0,1-8-8V243.313L35.313,304,96,364.687V336a8,8,0,0,1,8-8,226.209,226.209,0,0,1,129.053,40.656A176.161,176.161,0,0,1,263.667,395.7Z"/><path d="M456,168H280a8,8,0,0,1-8-8V96a24.027,24.027,0,0,0-24-24H136a24.027,24.027,0,0,0-24,24V264.172c95.106,4.09,171.727,80.722,175.817,175.828H456a24.027,24.027,0,0,0,24-24V192A24.027,24.027,0,0,0,456,168Z"/><path d="M456,120H288v32H456a39.788,39.788,0,0,1,24,8.022V144A24.028,24.028,0,0,0,456,120Z"/></svg>
